<svg xmlns="http://www.w3.org/2000/svg" width="32" height="32" viewBox="0 0 32 32">
    <g fill="none" fill-rule="evenodd" transform="translate(.111)">
        <ellipse cx="15.944" cy="16" fill="#000" rx="15.944" ry="16"/>
        <path fill="#FFF" d="M23.018 11.933c-.5.223-1.037.373-1.601.44a2.802 2.802 0 0 0 1.225-1.545 5.565 5.565 0 0 1-1.77.678 2.78 2.78 0 0 0-2.034-.883 2.79 2.79 0 0 0-2.715 3.431 7.907 7.907 0 0 1-5.746-2.92c-.24.413-.377.893-.377 1.405 0 .97.492 1.825 1.24 2.326a2.767 2.767 0 0 1-1.263-.35v.036c0 1.354.96 2.483 2.236 2.74a2.781 2.781 0 0 1-1.259.048 2.792 2.792 0 0 0 2.604 1.94 5.586 5.586 0 0 1-4.127 1.157 7.878 7.878 0 0 0 4.273 1.256c5.127 0 7.93-4.258 7.93-7.95a8.54 8.54 0 0 0-.008-.362 5.684 5.684 0 0 0 1.391-1.447"/>
    </g>
</svg>
