<svg xmlns="http://www.w3.org/2000/svg" width="33" height="32" viewBox="0 0 33 32">
    <g fill="none" fill-rule="evenodd" transform="translate(.556)">
        <ellipse cx="15.944" cy="16" fill="#000" rx="15.944" ry="16"/>
        <path fill="#FFF" d="M15.742 20.031h.903s.273-.03.412-.18c.128-.139.124-.398.124-.398s-.017-1.215.545-1.393c.554-.177 1.266 1.173 2.02 1.692.57.393 1.004.307 1.004.307l2.018-.028s1.055-.065.554-.897c-.04-.068-.291-.615-1.5-1.74-1.264-1.177-1.095-.986.429-3.022.928-1.24 1.299-1.997 1.183-2.32-.11-.31-.793-.228-.793-.228l-2.272.014s-.168-.023-.293.052a.635.635 0 0 0-.2.244s-.36.96-.84 1.776c-1.01 1.721-1.415 1.812-1.58 1.705-.385-.249-.289-1-.289-1.535 0-1.668.253-2.364-.491-2.544-.247-.06-.43-.1-1.06-.106-.811-.008-1.497.003-1.885.194-.259.127-.458.41-.336.425.15.02.49.092.67.338.233.318.225 1.03.225 1.03s.133 1.965-.313 2.208c-.306.168-.726-.174-1.628-1.736-.462-.8-.81-1.684-.81-1.684s-.068-.165-.188-.254c-.145-.107-.348-.141-.348-.141l-2.159.014s-.324.01-.443.15c-.106.126-.008.386-.008.386s1.69 3.963 3.603 5.96c1.754 1.831 3.746 1.711 3.746 1.711"/>
    </g>
</svg>
