<svg xmlns="http://www.w3.org/2000/svg" width="60" height="16"><g fill="none"><path fill="#92CFAE" d="M0 0v14.933L14.933 0z"/><path fill="#2A8288" d="M1.067 16H16V1.067z"/><path fill="#FFF" d="M24.388 7.653c1.737 0 2.66-.85 2.66-2.439v-.09c0-1.7-.967-2.371-2.66-2.371h-1.802v4.9h1.802zM19.048 0h5.428c3.824 0 6 1.723 6 5.102v.09c0 3.379-2.307 4.99-5.89 4.99h-2V16h-3.538V0zM37.52 13.247c1.704 0 2.566-.76 2.566-2.215v-.09c0-1.432-.862-2.215-2.652-2.215H35.45v4.52h2.07zM37.65 16H32V0h10.049v2.82h-6.577l-.022 3.356h2.307c3.558 0 5.672 1.59 5.672 4.789v.09c0 3.132-1.963 4.945-5.78 4.945zM46 .022h3.715v6.883L55.45 0h3.944l-6.49 7.575L59.714 16H55.38l-5.665-7.173V16H46z"/></g></svg>